<?xml version="1.0" encoding="utf-8"?>
<!-- Generator: Adobe Illustrator 23.0.1, SVG Export Plug-In . SVG Version: 6.00 Build 0)  -->
<svg version="1.1" id="Layer_1" xmlns="http://www.w3.org/2000/svg" xmlns:xlink="http://www.w3.org/1999/xlink" x="0px" y="0px"
	 viewBox="0 0 2160 2160" style="enable-background:new 0 0 2160 2160;" xml:space="preserve">
<style type="text/css">
	.st0{opacity:0.3;fill:url(#SVGID_1_);}
	.st1{opacity:0.81;fill:url(#SVGID_2_);}
	.st2{opacity:0.51;fill:#FFFFFF;}
	.st3{opacity:0.81;fill:url(#SVGID_3_);}
	.st4{fill:url(#SVGID_4_);}
	.st5{fill:url(#SVGID_5_);}
	.st6{fill:url(#SVGID_6_);}
	.st7{opacity:0.65;fill:#FFFFFF;}
	.st8{fill:url(#SVGID_7_);}
	.st9{fill:url(#SVGID_8_);}
	.st10{fill:#FFFFFF;}
	.st11{fill:url(#SVGID_9_);}
	.st12{fill:url(#SVGID_10_);}
	.st13{fill:url(#SVGID_11_);}
	.st14{fill:url(#SVGID_12_);}
	.st15{fill:url(#SVGID_13_);}
	.st16{fill:url(#SVGID_14_);}
	.st17{fill:url(#SVGID_15_);}
	.st18{fill:url(#SVGID_16_);}
	.st19{fill:url(#SVGID_17_);}
	.st20{fill:url(#SVGID_18_);}
	.st21{fill:url(#SVGID_19_);}
	.st22{fill:url(#SVGID_20_);}
	.st23{fill:url(#SVGID_21_);}
	.st24{fill:url(#SVGID_22_);}
	.st25{fill:url(#SVGID_23_);}
	.st26{fill:url(#SVGID_24_);}
	.st27{fill:url(#SVGID_25_);}
	.st28{fill:url(#SVGID_26_);}
	.st29{fill:url(#SVGID_27_);}
	.st30{fill:url(#SVGID_28_);}
	.st31{fill:url(#SVGID_29_);}
	.st32{fill:url(#SVGID_30_);}
	.st33{fill:url(#SVGID_31_);}
	.st34{fill:url(#SVGID_32_);}
	.st35{opacity:0.6;fill:url(#SVGID_33_);}
	.st36{opacity:0.6;fill:url(#SVGID_34_);}
	.st37{fill:url(#SVGID_35_);}
	.st38{opacity:0.6;fill:url(#SVGID_36_);}
	.st39{opacity:0.6;fill:url(#SVGID_37_);}
	.st40{fill:url(#SVGID_38_);}
	.st41{fill:url(#SVGID_39_);}
	.st42{fill:url(#SVGID_40_);}
	.st43{fill:url(#SVGID_41_);}
	.st44{fill:url(#SVGID_42_);}
	.st45{fill:url(#SVGID_43_);}
	.st46{fill:url(#SVGID_44_);}
	.st47{fill:url(#SVGID_45_);}
	.st48{fill:url(#SVGID_46_);}
	.st49{fill:url(#SVGID_47_);}
	.st50{fill:url(#SVGID_48_);}
	.st51{fill:url(#SVGID_49_);}
	.st52{fill:url(#SVGID_50_);}
	.st53{fill:url(#SVGID_51_);}
	.st54{fill:url(#SVGID_52_);}
	.st55{fill:url(#SVGID_53_);}
	.st56{fill:url(#SVGID_54_);}
	.st57{fill:url(#SVGID_55_);}
	.st58{fill:url(#SVGID_56_);}
	.st59{fill:url(#SVGID_57_);}
	.st60{fill:url(#SVGID_58_);}
	.st61{fill:url(#SVGID_59_);}
	.st62{fill:url(#SVGID_60_);}
	.st63{fill:url(#SVGID_61_);}
	.st64{fill:url(#SVGID_62_);}
	.st65{fill:url(#SVGID_63_);}
	.st66{fill:url(#SVGID_64_);}
	.st67{fill:url(#SVGID_65_);}
	.st68{fill:url(#SVGID_66_);}
	.st69{fill:url(#SVGID_67_);}
	.st70{fill:url(#SVGID_68_);}
</style>
<g>
	<linearGradient id="SVGID_1_" gradientUnits="userSpaceOnUse" x1="2336.6992" y1="2679.9141" x2="543.1901" y2="452.4883">
		<stop  offset="0" style="stop-color:#B37CFF"/>
		<stop  offset="1" style="stop-color:#F895E7"/>
	</linearGradient>
	<path class="st0" d="M1848.83,1797.65c-41.5,43.16-80.77,70.99-111.79,92.98c-364.68,258.49-796.19,183.14-887.9,164.74
		c-135.42-27.17-397.2-79.7-586.45-299.56c-286.33-332.64-241.74-856.7-19.65-1202.65c40.62-63.28,255.22-414.49,691.38-470.81
		c263.96-34.09,571.65,34.66,794.47,219.08C2196.61,688.55,2163.32,1470.59,1848.83,1797.65z"/>
	<g>
		<g>
			
				<linearGradient id="SVGID_2_" gradientUnits="userSpaceOnUse" x1="-4195.3472" y1="613.8167" x2="-5223.1885" y2="1714.3345" gradientTransform="matrix(-0.9993 -0.0377 -0.0377 0.9993 -3692.6147 646.4907)">
				<stop  offset="0" style="stop-color:#B37CFF"/>
				<stop  offset="1" style="stop-color:#F895E7"/>
			</linearGradient>
			<path class="st1" d="M895.25,1921.89c-12.76-229.88-98.01-439.58-400.67-588.77C494.57,1333.12,447.6,1897.03,895.25,1921.89z"/>
			<path class="st2" d="M812.13,1822.1c-0.61,0-1.23-0.23-1.7-0.69c-171.19-167.08-278.15-412.2-279.21-414.66
				c-0.53-1.23,0.04-2.67,1.27-3.2c1.23-0.54,2.67,0.04,3.2,1.27c1.06,2.45,107.65,246.71,278.14,413.1
				c0.96,0.94,0.98,2.48,0.04,3.44C813.4,1821.85,812.77,1822.1,812.13,1822.1z"/>
		</g>
		<g>
			
				<linearGradient id="SVGID_3_" gradientUnits="userSpaceOnUse" x1="-44.5486" y1="-814.6422" x2="-971.3333" y2="177.6734" gradientTransform="matrix(0.1841 -0.9829 -0.9829 -0.1841 1135.1996 1407.1887)">
				<stop  offset="0" style="stop-color:#B37CFF"/>
				<stop  offset="1" style="stop-color:#F895E7"/>
			</linearGradient>
			<path class="st3" d="M1422.89,1907.54c206.71,19.08,405.04-29.18,578.19-279.35C2001.08,1628.19,1504.36,1511.58,1422.89,1907.54
				z"/>
			<path class="st2" d="M1540.17,1840.01c-0.56,0-1.12-0.19-1.57-0.58c-1.03-0.87-1.15-2.41-0.28-3.43
				c61.8-72.84,162.98-119.13,236.97-145.13c80.07-28.13,146.46-39.25,147.13-39.35c1.33-0.24,2.58,0.68,2.8,2
				c0.22,1.33-0.68,2.58-2.01,2.8c-2.63,0.44-264.18,44.92-381.17,182.83C1541.55,1839.71,1540.86,1840.01,1540.17,1840.01z"/>
		</g>
		<linearGradient id="SVGID_4_" gradientUnits="userSpaceOnUse" x1="1137.9027" y1="2060.1138" x2="1111.7336" y2="1541.9718">
			<stop  offset="0" style="stop-color:#2B3582"/>
			<stop  offset="1" style="stop-color:#150E42"/>
		</linearGradient>
		<polygon class="st4" points="919.22,1471.89 875.75,1861.69 1380.01,1861.69 1314.33,1471.89 		"/>
		<g>
			<linearGradient id="SVGID_5_" gradientUnits="userSpaceOnUse" x1="72.1539" y1="988.2338" x2="2085.001" y2="988.2338">
				<stop  offset="0" style="stop-color:#2B3582"/>
				<stop  offset="1" style="stop-color:#150E42"/>
			</linearGradient>
			<path class="st5" d="M72.15,511.49v892.75c0,73.44,58.52,133.5,131.94,135.39c326.08,8.41,1466.53,28.8,1776.94,24.22
				c53.35-0.79,96.57-43.48,98.11-96.81c5.99-207.4,15.71-706.12-20.27-937.66c-7.58-48.76-48.73-85.22-98.05-86.8
				c-273.21-8.74-1482.17-36.49-1792.43-29.53C114.88,414.26,72.15,457.97,72.15,511.49z"/>
			<linearGradient id="SVGID_6_" gradientUnits="userSpaceOnUse" x1="1414.3712" y1="552.637" x2="-284.1568" y2="2498.366">
				<stop  offset="0" style="stop-color:#53D8FF"/>
				<stop  offset="1" style="stop-color:#3840F7"/>
			</linearGradient>
			<path class="st6" d="M128.17,507.15v848.18c0,42.88,34.42,77.82,77.29,78.46l1730.91,21.38c42.51,0.64,77.35-33.56,77.51-76.07
				l2.9-840.6c0.11-30.4-24.1-55.3-54.49-56.04l-1772.13-35.8C156.17,445.83,128.17,473.15,128.17,507.15z"/>
			<path class="st7" d="M2026.91,1489.96c-0.01,0-0.03,0-0.04,0l-1898.74-32.35c-1.34-0.02-2.42-1.13-2.39-2.48
				c0.02-1.35,1.09-2.53,2.48-2.39l1898.74,32.35c1.34,0.02,2.42,1.13,2.39,2.48C2029.32,1488.9,2028.24,1489.96,2026.91,1489.96z"
				/>
			<path class="st7" d="M1096.27,1529.47c-12.24,0-22.19-9.96-22.19-22.19s9.95-22.19,22.19-22.19s22.19,9.95,22.19,22.19
				S1108.51,1529.47,1096.27,1529.47z M1096.27,1489.96c-9.55,0-17.32,7.77-17.32,17.32c0,9.55,7.77,17.32,17.32,17.32
				c9.55,0,17.32-7.77,17.32-17.32C1113.59,1497.73,1105.82,1489.96,1096.27,1489.96z"/>
		</g>
		<g>
			
				<linearGradient id="SVGID_7_" gradientUnits="userSpaceOnUse" x1="-1348" y1="-842.8835" x2="-2453.1553" y2="340.4148" gradientTransform="matrix(-0.3594 -0.9332 -0.9332 0.3594 441.7978 336.0991)">
				<stop  offset="0" style="stop-color:#A737D5"/>
				<stop  offset="1" style="stop-color:#EF497A"/>
			</linearGradient>
			<path class="st8" d="M1392.48,1918.36c221.73-110.07,392.79-283.22,411.87-645.54
				C1804.35,1272.82,1227.23,1465.5,1392.48,1918.36z"/>
			<path class="st2" d="M1428.34,1836.57c-0.27,0-0.54-0.04-0.81-0.14c-1.27-0.44-1.94-1.83-1.49-3.1
				c52.93-150.89,131.59-267.23,188.26-338.25c61.42-76.98,111.02-118.86,111.52-119.28c1.03-0.87,2.57-0.73,3.43,0.3
				c0.86,1.03,0.73,2.57-0.3,3.43c-1.96,1.65-197.47,167.96-298.31,455.41C1430.29,1835.94,1429.34,1836.57,1428.34,1836.57z"/>
		</g>
		<g>
			<linearGradient id="SVGID_8_" gradientUnits="userSpaceOnUse" x1="1139.5313" y1="1864.5981" x2="898.7777" y2="2393.2087">
				<stop  offset="0" style="stop-color:#2B3582"/>
				<stop  offset="1" style="stop-color:#150E42"/>
			</linearGradient>
			<path class="st9" d="M1488.63,1941.44H750.61c-20.05,0-35.11-14.27-31.23-29.6l9.47-37.45c2.85-11.26,15.24-19.53,29.96-19.99
				l711.47-22.2c15.38-0.48,28.99,7.68,32.34,19.39l17.07,59.65C1524.13,1926.73,1509,1941.44,1488.63,1941.44z"/>
			<path class="st10" d="M1147.9,1864.57c-1.33,0-2.41-1.07-2.43-2.4c-0.02-1.34,1.05-2.45,2.4-2.47l30.49-0.45
				c0.01,0,0.02,0,0.04,0c1.33,0,2.41,1.07,2.43,2.4c0.02,1.34-1.05,2.45-2.4,2.47l-30.49,0.45
				C1147.92,1864.57,1147.91,1864.57,1147.9,1864.57z"/>
			<path class="st10" d="M746.71,1920.83c-0.13,0-0.26-0.01-0.39-0.03c-1.33-0.21-2.23-1.46-2.02-2.79l4.35-27.24
				c2.34-14.65,14.8-25.45,29.64-25.66l323.37-4.73c1.28-0.1,2.45,1.06,2.47,2.4c0.02,1.35-1.05,2.45-2.4,2.47l-323.37,4.73
				c-12.46,0.18-22.94,9.25-24.9,21.56l-4.35,27.24C748.92,1919.97,747.88,1920.83,746.71,1920.83z"/>
		</g>
	</g>
	<g>
		<g>
			
				<linearGradient id="SVGID_9_" gradientUnits="userSpaceOnUse" x1="-273.5607" y1="-421.7521" x2="-785.7175" y2="854.5755" gradientTransform="matrix(0.9574 -0.2888 0.2888 0.9574 2096.8196 191.4961)">
				<stop  offset="0" style="stop-color:#18459F"/>
				<stop  offset="0.9901" style="stop-color:#3E60F9"/>
			</linearGradient>
			<path class="st11" d="M1671.62,145.69c11.04,0.52,22.17,1.53,33.1,3c1.5,0.2,2.96,0.07,4.32-0.34c3.73-1.13,6.66-4.34,7.21-8.46
				c0.76-5.61-3.18-10.78-8.8-11.53c-11.5-1.54-23.23-2.61-34.85-3.16c-5.66-0.27-10.47,4.1-10.73,9.76
				C1661.59,140.61,1665.96,145.42,1671.62,145.69z"/>
			
				<linearGradient id="SVGID_10_" gradientUnits="userSpaceOnUse" x1="-563.2023" y1="-537.976" x2="-1075.3455" y2="738.3175" gradientTransform="matrix(0.9574 -0.2888 0.2888 0.9574 2096.8196 191.4961)">
				<stop  offset="0" style="stop-color:#18459F"/>
				<stop  offset="0.9901" style="stop-color:#3E60F9"/>
			</linearGradient>
			<path class="st12" d="M1384.2,238.75c-3.92-4.09-10.41-4.23-14.51-0.31c-8.39,8.04-16.53,16.54-24.2,25.26
				c-3.74,4.25-3.33,10.74,0.93,14.48c2.76,2.43,6.47,3.11,9.75,2.12c1.77-0.53,3.42-1.55,4.73-3.04
				c7.29-8.28,15.02-16.36,22.99-23.99C1387.99,249.33,1388.12,242.84,1384.2,238.75z"/>
			
				<linearGradient id="SVGID_11_" gradientUnits="userSpaceOnUse" x1="-644.9338" y1="-570.78" x2="-1157.0823" y2="705.5269" gradientTransform="matrix(0.9574 -0.2888 0.2888 0.9574 2096.8196 191.4961)">
				<stop  offset="0" style="stop-color:#18459F"/>
				<stop  offset="0.9901" style="stop-color:#3E60F9"/>
			</linearGradient>
			<path class="st13" d="M1258.4,470.6c-5.61-0.76-10.78,3.17-11.55,8.78c-1.57,11.51-2.65,23.23-3.22,34.83
				c-0.28,5.66,4.08,10.47,9.74,10.75c1.21,0.06,2.38-0.09,3.47-0.42c4.04-1.22,7.06-4.87,7.28-9.32
				c0.54-11.02,1.57-22.14,3.06-33.08C1267.95,476.53,1264.01,471.36,1258.4,470.6z"/>
			
				<linearGradient id="SVGID_12_" gradientUnits="userSpaceOnUse" x1="-607.4773" y1="-555.7443" x2="-1119.623" y2="720.5556" gradientTransform="matrix(0.9574 -0.2888 0.2888 0.9574 2096.8196 191.4961)">
				<stop  offset="0" style="stop-color:#18459F"/>
				<stop  offset="0.9901" style="stop-color:#3E60F9"/>
			</linearGradient>
			<path class="st14" d="M1325.23,305.92c-4.73-3.12-11.1-1.81-14.21,2.92c-6.41,9.71-12.46,19.8-18.01,29.98
				c-2.71,4.97-0.87,11.21,4.1,13.91c2.51,1.37,5.33,1.58,7.87,0.81c2.49-0.75,4.7-2.45,6.05-4.92
				c5.27-9.68,11.03-19.27,17.12-28.49C1331.26,315.4,1329.96,309.04,1325.23,305.92z"/>
			
				<linearGradient id="SVGID_13_" gradientUnits="userSpaceOnUse" x1="-355.9328" y1="-454.7959" x2="-868.0682" y2="821.4783" gradientTransform="matrix(0.9574 -0.2888 0.2888 0.9574 2096.8196 191.4961)">
				<stop  offset="0" style="stop-color:#18459F"/>
				<stop  offset="0.9901" style="stop-color:#3E60F9"/>
			</linearGradient>
			<path class="st15" d="M1584.72,151.37c10.88-1.95,21.96-3.45,32.94-4.47c0.7-0.06,1.38-0.2,2.03-0.4
				c4.57-1.38,7.7-5.83,7.24-10.77c-0.52-5.64-5.52-9.79-11.16-9.27c-11.55,1.07-23.22,2.65-34.66,4.7
				c-5.59,0.97-9.29,6.33-8.29,11.91C1573.81,148.65,1579.14,152.37,1584.72,151.37z"/>
			
				<linearGradient id="SVGID_14_" gradientUnits="userSpaceOnUse" x1="-635.1663" y1="-566.8599" x2="-1147.3137" y2="709.4441" gradientTransform="matrix(0.9574 -0.2888 0.2888 0.9574 2096.8196 191.4961)">
				<stop  offset="0" style="stop-color:#18459F"/>
				<stop  offset="0.9901" style="stop-color:#3E60F9"/>
			</linearGradient>
			<path class="st16" d="M1282.57,384.5c-5.3-1.99-11.22,0.69-13.22,5.98c-4.09,10.87-7.77,22.05-10.93,33.24
				c-1.54,5.45,1.64,11.12,7.09,12.66c1.95,0.55,3.93,0.5,5.74-0.05c3.24-0.98,5.93-3.54,6.92-7.04
				c2.99-10.63,6.49-21.25,10.38-31.58C1290.55,392.41,1287.87,386.49,1282.57,384.5z"/>
			
				<linearGradient id="SVGID_15_" gradientUnits="userSpaceOnUse" x1="-635.7656" y1="-567.1042" x2="-1147.9153" y2="709.2054" gradientTransform="matrix(0.9574 -0.2888 0.2888 0.9574 2096.8196 191.4961)">
				<stop  offset="0" style="stop-color:#18459F"/>
				<stop  offset="0.9901" style="stop-color:#3E60F9"/>
			</linearGradient>
			<path class="st17" d="M1254.09,559.88c-5.66,0.53-9.8,5.5-9.29,11.15c1.04,11.53,2.6,23.2,4.63,34.66
				c0.99,5.58,6.31,9.3,11.89,8.31c0.4-0.07,0.8-0.17,1.19-0.28c4.91-1.48,8.04-6.43,7.13-11.61c-1.93-10.89-3.41-21.97-4.4-32.93
				C1264.73,563.53,1259.74,559.37,1254.09,559.88z"/>
			
				<linearGradient id="SVGID_16_" gradientUnits="userSpaceOnUse" x1="-504.5135" y1="-514.4232" x2="-1016.6554" y2="761.8669" gradientTransform="matrix(0.9574 -0.2888 0.2888 0.9574 2096.8196 191.4961)">
				<stop  offset="0" style="stop-color:#18459F"/>
				<stop  offset="0.9901" style="stop-color:#3E60F9"/>
			</linearGradient>
			<path class="st18" d="M1422.29,220.24c1.06-0.32,2.09-0.82,3.04-1.51c8.94-6.45,18.27-12.6,27.74-18.25
				c4.86-2.91,6.45-9.21,3.54-14.07c-2.91-4.86-9.2-6.42-14.07-3.54c-9.97,5.96-19.79,12.43-29.21,19.22
				c-4.6,3.32-5.63,9.73-2.32,14.32C1413.64,220.06,1418.22,221.47,1422.29,220.24z"/>
			
				<linearGradient id="SVGID_17_" gradientUnits="userSpaceOnUse" x1="-434.2262" y1="-486.2168" x2="-946.3661" y2="790.0687" gradientTransform="matrix(0.9574 -0.2888 0.2888 0.9574 2096.8196 191.4961)">
				<stop  offset="0" style="stop-color:#18459F"/>
				<stop  offset="0.9901" style="stop-color:#3E60F9"/>
			</linearGradient>
			<path class="st19" d="M1500.16,176.47c0.35-0.1,0.69-0.23,1.04-0.37c10.16-4.29,20.63-8.19,31.13-11.6
				c5.39-1.75,8.34-7.53,6.59-12.93c-1.73-5.32-7.39-8.26-12.72-6.65c-0.07,0.02-0.14,0.04-0.21,0.07
				c-11.06,3.59-22.09,7.7-32.78,12.21c-5.22,2.21-7.67,8.22-5.46,13.44C1489.81,175.51,1495.2,177.96,1500.16,176.47z"/>
			
				<linearGradient id="SVGID_18_" gradientUnits="userSpaceOnUse" x1="-608.7819" y1="-556.2769" x2="-1120.9329" y2="720.0361" gradientTransform="matrix(0.9574 -0.2888 0.2888 0.9574 2096.8196 191.4961)">
				<stop  offset="0" style="stop-color:#18459F"/>
				<stop  offset="0.9901" style="stop-color:#3E60F9"/>
			</linearGradient>
			<path class="st20" d="M1282.61,654.36c-1.72-5.33-7.43-8.42-12.76-6.81c-0.06,0.02-0.13,0.04-0.19,0.06
				c-5.42,1.64-8.31,7.66-6.57,13.05c3.58,11.09,7.76,22.44,12.24,33.12c2.05,4.89,7.42,7.26,12.38,5.77
				c0.34-0.1,0.63-0.39,0.97-0.53c5.23-2.19,7.69-8.18,5.5-13.4C1289.92,675.47,1286.01,664.9,1282.61,654.36z"/>
			
				<linearGradient id="SVGID_19_" gradientUnits="userSpaceOnUse" x1="-198.9351" y1="-391.8037" x2="-711.0902" y2="884.5195" gradientTransform="matrix(0.9574 -0.2888 0.2888 0.9574 2096.8196 191.4961)">
				<stop  offset="0" style="stop-color:#18459F"/>
				<stop  offset="0.9901" style="stop-color:#3E60F9"/>
			</linearGradient>
			<path class="st21" d="M1786.08,157.71c1.75-5.38-1.19-11.18-6.58-12.93c-5.29-1.72-10.71-3.36-16.1-4.88
				c-5.46-1.54-11.12,1.64-12.65,7.1c-1.53,5.45,1.65,11.12,7.1,12.65c5.12,1.44,10.27,3,15.3,4.64c2.07,0.67,4.19,0.65,6.13,0.07
				C1782.38,163.42,1785,161.03,1786.08,157.71z"/>
		</g>
		
			<linearGradient id="SVGID_20_" gradientUnits="userSpaceOnUse" x1="-293.2572" y1="-429.6864" x2="-805.4208" y2="846.658" gradientTransform="matrix(0.9574 -0.2888 0.2888 0.9574 2096.8196 191.4961)">
			<stop  offset="0" style="stop-color:#18459F"/>
			<stop  offset="0.9901" style="stop-color:#3E60F9"/>
		</linearGradient>
		<path class="st22" d="M1614.93,922.06c-10.81-1.06-21.7-2.6-32.37-4.56c-5.58-1.03-10.92,2.65-11.95,8.23
			c-1.03,5.57,2.66,10.92,8.23,11.95c11.24,2.07,22.71,3.69,34.09,4.81c1.38,0.13,2.71-0.01,3.96-0.38
			c3.86-1.16,6.83-4.56,7.25-8.83C1624.69,927.64,1620.56,922.61,1614.93,922.06z"/>
		<g>
			
				<linearGradient id="SVGID_21_" gradientUnits="userSpaceOnUse" x1="67.9092" y1="-268.7673" x2="-444.2411" y2="1007.5438" gradientTransform="matrix(0.9574 -0.2888 0.2888 0.9574 2096.8196 191.4961)">
				<stop  offset="0" style="stop-color:#18459F"/>
				<stop  offset="0.9901" style="stop-color:#3E60F9"/>
			</linearGradient>
			<path class="st23" d="M2038.2,382.26c2.23,4.6,7.44,6.78,12.18,5.35c0.52-0.16,1.03-0.35,1.53-0.6c5.1-2.47,7.22-8.61,4.75-13.71
				c-2.43-5.01-5.01-10.05-7.66-14.99c-2.68-4.99-8.88-6.87-13.89-4.18c-4.99,2.68-6.86,8.9-4.18,13.89
				C2033.45,372.72,2035.9,377.51,2038.2,382.26z"/>
			
				<linearGradient id="SVGID_22_" gradientUnits="userSpaceOnUse" x1="120.8909" y1="-247.5064" x2="-391.2583" y2="1028.802" gradientTransform="matrix(0.9574 -0.2888 0.2888 0.9574 2096.8196 191.4961)">
				<stop  offset="0" style="stop-color:#18459F"/>
				<stop  offset="0.9901" style="stop-color:#3E60F9"/>
			</linearGradient>
			<path class="st24" d="M2084.82,504.21c-5.62,0.55-9.77,5.56-9.22,11.2c1.05,10.82,1.65,21.79,1.79,32.64
				c0.07,5.66,4.72,10.2,10.39,10.13c0.99-0.01,1.94-0.16,2.84-0.43c4.27-1.29,7.35-5.28,7.29-9.95
				c-0.14-11.41-0.78-22.97-1.88-34.36C2095.48,507.79,2090.46,503.66,2084.82,504.21z"/>
			
				<linearGradient id="SVGID_23_" gradientUnits="userSpaceOnUse" x1="123.5291" y1="-246.4459" x2="-388.6181" y2="1029.8575" gradientTransform="matrix(0.9574 -0.2888 0.2888 0.9574 2096.8196 191.4961)">
				<stop  offset="0" style="stop-color:#18459F"/>
				<stop  offset="0.9901" style="stop-color:#3E60F9"/>
			</linearGradient>
			<path class="st25" d="M2085.86,592.2c-5.61-0.71-10.75,3.28-11.46,8.9c-1.35,10.76-3.19,21.61-5.45,32.24
				c-1.18,5.54,2.35,10.99,7.9,12.17c1.75,0.37,3.49,0.27,5.09-0.21c3.47-1.05,6.27-3.9,7.08-7.69c2.38-11.19,4.31-22.61,5.74-33.95
				C2095.47,598.04,2091.49,592.91,2085.86,592.2z"/>
			
				<linearGradient id="SVGID_24_" gradientUnits="userSpaceOnUse" x1="75.7002" y1="-265.6331" x2="-436.4442" y2="1010.6636" gradientTransform="matrix(0.9574 -0.2888 0.2888 0.9574 2096.8196 191.4961)">
				<stop  offset="0" style="stop-color:#18459F"/>
				<stop  offset="0.9901" style="stop-color:#3E60F9"/>
			</linearGradient>
			<path class="st26" d="M2016.61,761.35c-5.82,9.16-12.1,18.19-18.68,26.84c-3.43,4.51-2.55,10.95,1.97,14.38
				c2.72,2.06,6.14,2.56,9.17,1.65c2-0.6,3.84-1.82,5.2-3.61c6.92-9.11,13.53-18.61,19.66-28.25c3.04-4.78,1.63-11.12-3.16-14.16
				C2025.98,755.15,2019.64,756.56,2016.61,761.35z"/>
			
				<linearGradient id="SVGID_25_" gradientUnits="userSpaceOnUse" x1="-33.4763" y1="-309.4369" x2="-545.618" y2="966.8529" gradientTransform="matrix(0.9574 -0.2888 0.2888 0.9574 2096.8196 191.4961)">
				<stop  offset="0" style="stop-color:#18459F"/>
				<stop  offset="0.9901" style="stop-color:#3E60F9"/>
			</linearGradient>
			<path class="st27" d="M1896.16,881.66c-9.19,5.81-18.72,11.29-28.34,16.28c-5.03,2.61-6.99,8.81-4.38,13.84
				c2.31,4.45,7.42,6.49,12.06,5.1c0.6-0.18,1.2-0.42,1.78-0.72c10.13-5.26,20.17-11.03,29.85-17.14c4.79-3.03,6.22-9.36,3.19-14.16
				C1907.28,880.06,1900.95,878.64,1896.16,881.66z"/>
			
				<linearGradient id="SVGID_26_" gradientUnits="userSpaceOnUse" x1="27.7341" y1="-284.8803" x2="-484.4089" y2="991.4127" gradientTransform="matrix(0.9574 -0.2888 0.2888 0.9574 2096.8196 191.4961)">
				<stop  offset="0" style="stop-color:#18459F"/>
				<stop  offset="0.9901" style="stop-color:#3E60F9"/>
			</linearGradient>
			<path class="st28" d="M1963.02,828.19c-7.69,7.69-15.79,15.13-24.07,22.11c-4.33,3.65-4.88,10.13-1.22,14.46
				c2.72,3.23,7.01,4.35,10.81,3.21c1.3-0.39,2.54-1.05,3.65-1.98c8.72-7.36,17.24-15.19,25.34-23.28c4.01-4,4.01-10.5,0.01-14.51
				C1973.52,824.18,1967.02,824.18,1963.02,828.19z"/>
			
				<linearGradient id="SVGID_27_" gradientUnits="userSpaceOnUse" x1="108.1718" y1="-252.6053" x2="-403.9755" y2="1023.6984" gradientTransform="matrix(0.9574 -0.2888 0.2888 0.9574 2096.8196 191.4961)">
				<stop  offset="0" style="stop-color:#18459F"/>
				<stop  offset="0.9901" style="stop-color:#3E60F9"/>
			</linearGradient>
			<path class="st29" d="M2067.51,678.26c-5.34-1.93-11.21,0.84-13.13,6.16c-3.68,10.2-7.85,20.38-12.39,30.27
				c-2.36,5.15-0.1,11.24,5.05,13.6c2.36,1.09,4.93,1.2,7.24,0.5c2.72-0.82,5.09-2.76,6.37-5.54c4.77-10.4,9.16-21.12,13.03-31.85
				C2075.6,686.06,2072.84,680.18,2067.51,678.26z"/>
			
				<linearGradient id="SVGID_28_" gradientUnits="userSpaceOnUse" x1="-183.4468" y1="-369.6061" x2="-695.5825" y2="906.6689" gradientTransform="matrix(0.9574 -0.2888 0.2888 0.9574 2096.8196 191.4961)">
				<stop  offset="0" style="stop-color:#18459F"/>
				<stop  offset="0.9901" style="stop-color:#3E60F9"/>
			</linearGradient>
			<path class="st30" d="M1735.72,938.91c-10.79,1.34-21.76,2.24-32.6,2.67c-5.66,0.21-10.07,5-9.84,10.66
				c0.22,5.66,5,10.07,10.66,9.84c11.41-0.45,22.96-1.4,34.31-2.81c0.59-0.07,1.16-0.2,1.71-0.36c4.7-1.42,7.83-6.05,7.21-11.09
				C1746.47,942.21,1741.35,938.21,1735.72,938.91z"/>
			
				<linearGradient id="SVGID_29_" gradientUnits="userSpaceOnUse" x1="-105.058" y1="-338.1553" x2="-617.1967" y2="938.127" gradientTransform="matrix(0.9574 -0.2888 0.2888 0.9574 2096.8196 191.4961)">
				<stop  offset="0" style="stop-color:#18459F"/>
				<stop  offset="0.9901" style="stop-color:#3E60F9"/>
			</linearGradient>
			<path class="st31" d="M1819.13,919.13c-10.16,3.62-20.64,6.86-31.25,9.67c-5.45,1.43-8.74,7.07-7.28,12.55
				c1.45,5.48,7.07,8.74,12.55,7.29c4.6-1.22,9.16-2.51,13.68-3.87c6.45-1.94,12.91-4.06,19.19-6.3c5.34-1.9,8.13-7.77,6.22-13.11
				C1830.33,920.01,1824.47,917.23,1819.13,919.13z"/>
			
				<linearGradient id="SVGID_30_" gradientUnits="userSpaceOnUse" x1="100.4767" y1="-255.6996" x2="-411.6743" y2="1020.6135" gradientTransform="matrix(0.9574 -0.2888 0.2888 0.9574 2096.8196 191.4961)">
				<stop  offset="0" style="stop-color:#18459F"/>
				<stop  offset="0.9901" style="stop-color:#3E60F9"/>
			</linearGradient>
			<path class="st32" d="M2077.58,425.17c-1.75-5.39-7.51-8.46-12.93-6.58c-5.39,1.75-8.33,7.54-6.58,12.93
				c0.89,2.73,1.76,5.49,2.59,8.25c2.31,7.64,4.41,15.46,6.24,23.24c1.3,5.51,6.83,8.93,12.34,7.62c0.21-0.05,0.41-0.1,0.61-0.16
				c5.15-1.55,8.27-6.87,7.01-12.18c-1.93-8.19-4.14-16.41-6.57-24.45C2079.42,430.94,2078.51,428.05,2077.58,425.17z"/>
		</g>
		
			<linearGradient id="SVGID_31_" gradientUnits="userSpaceOnUse" x1="-366.3521" y1="-458.9981" x2="-878.5064" y2="817.3231" gradientTransform="matrix(0.9574 -0.2888 0.2888 0.9574 2096.8196 191.4961)">
			<stop  offset="0" style="stop-color:#18459F"/>
			<stop  offset="0.9901" style="stop-color:#3E60F9"/>
		</linearGradient>
		<path class="st33" d="M1530.86,904.23c-5.01-1.66-10.07-3.45-15.06-5.34c-5.3-2-11.22,0.68-13.22,5.98
			c-2,5.3,0.67,11.22,5.98,13.22c5.25,1.98,10.58,3.87,15.86,5.62c2.08,0.69,4.22,0.67,6.18,0.08c3.09-0.93,5.69-3.3,6.78-6.6
			C1539.16,911.81,1536.24,906,1530.86,904.23z"/>
		<g>
			
				<linearGradient id="SVGID_32_" gradientUnits="userSpaceOnUse" x1="935.2861" y1="-403.2037" x2="1203.5709" y2="1304.0615" gradientTransform="matrix(0.981 0.1938 -0.1938 0.981 776.3535 324.4033)">
				<stop  offset="0" style="stop-color:#18459F"/>
				<stop  offset="0.9901" style="stop-color:#3E60F9"/>
			</linearGradient>
			<path class="st34" d="M1989.09,449.42l-57.75-8.14c-11.05-24.6-25.8-46.86-43.38-66.3l-74.54,14.33l-56.97,61.77l50.29,108.89
				l-127.28-4.25l-74.39,55.39l10.1,97.75l-78.23-15.17l-26.63,26.41l-15.03,56.2c-0.53,1.98,0.25,4.07,1.95,5.21l58.03,39.14
				c1.7,1.14,3.93,1.09,5.57-0.14l46.62-35.1c25.47,9.69,52.68,15.38,80.7,16.45l29.18,50.49c1.02,1.77,3.06,2.7,5.07,2.31
				l68.71-13.36c2.01-0.39,3.55-2.01,3.83-4.04l8.14-57.75c25.59-11.49,48.67-26.96,68.66-45.48l56.38,15.08
				c1.98,0.53,4.07-0.25,5.21-1.95l39.14-58.03c1.14-1.7,1.09-3.93-0.14-5.57l-35.1-46.62c9.69-25.47,15.38-52.68,16.45-80.7
				l50.49-29.18c1.77-1.02,2.7-3.06,2.31-5.07l-13.36-68.72C1992.74,451.24,1991.12,449.7,1989.09,449.42z"/>
			
				<linearGradient id="SVGID_33_" gradientUnits="userSpaceOnUse" x1="793.693" y1="888.834" x2="1018.5999" y2="-238.4144" gradientTransform="matrix(0.981 0.1938 -0.1938 0.981 776.3535 324.4033)">
				<stop  offset="0" style="stop-color:#53D8FF"/>
				<stop  offset="1" style="stop-color:#3840F7"/>
			</linearGradient>
			<path class="st35" d="M1721.05,595.08c-24.69,11.61-53.77,2.76-68.19-19.55l-13.17,9.83c17.11,25.59,49.2,37.18,78.7,28.28
				c3.25-0.98,6.48-2.21,9.65-3.7c21.36-10.04,35.31-29.51,39.26-51.13l-16.66-0.59C1747.06,573.84,1736.65,587.75,1721.05,595.08z"
				/>
			
				<linearGradient id="SVGID_34_" gradientUnits="userSpaceOnUse" x1="1028.2264" y1="-500.1797" x2="1063.4529" y2="670.3934" gradientTransform="matrix(0.981 0.1938 -0.1938 0.981 776.3535 324.4033)">
				<stop  offset="0" style="stop-color:#53D8FF"/>
				<stop  offset="1" style="stop-color:#3840F7"/>
			</linearGradient>
			<path class="st36" d="M1864.39,494.66c-11.01-36.47-33.57-67.96-64.84-90.33l-5.61,6.08c30.22,21.34,52.02,51.57,62.6,86.63
				c1.62,5.38,2.98,10.87,4.07,16.47c6.2,31.88,2.71,63.44-8.4,91.63c-19.98,50.68-64.6,90.46-121.93,101.59
				c-11.54,2.25-23.3,3.27-34.96,3.03c-2.26-0.04-4.14,1.75-4.19,4.02c-0.01,0.44,0.05,0.87,0.17,1.28c0.5,1.66,2.02,2.88,3.85,2.91
				c0.69,0.01,1.39-0.36,2.08-0.36c0.36,0.01,0.71-0.38,1.07-0.38c0.12,0,0.25,0,0.38,0c9.21,0,18.47-0.36,27.62-1.84
				c1.86-0.3,3.71-0.44,5.55-0.8c5.86-1.14,11.62-2.47,17.26-4.17c38.01-11.47,70.66-35.41,93.16-68.77
				c25.84-38.31,35.22-84.37,26.4-129.74C1867.52,506.05,1866.1,500.3,1864.39,494.66z"/>
		</g>
		<g>
			
				<linearGradient id="SVGID_35_" gradientUnits="userSpaceOnUse" x1="765.0098" y1="-290.954" x2="537.3746" y2="-1364.0947" gradientTransform="matrix(0.981 0.1938 -0.1938 0.981 776.3535 324.4033)">
				<stop  offset="0" style="stop-color:#18459F"/>
				<stop  offset="0.9901" style="stop-color:#3E60F9"/>
			</linearGradient>
			<path class="st37" d="M1555.55,664.41l-9.62-93.14l74.39-55.39l124,4.14c1.5,0.05,2.53-1.5,1.9-2.87l-48.92-105.91l56.97-61.77
				l74.54-14.33c-0.71-0.78-1.38-1.59-2.1-2.36l15.08-56.38c0.53-1.98-0.25-4.07-1.95-5.21l-58.04-39.14
				c-1.7-1.15-3.93-1.09-5.56,0.14l-46.62,35.1c-25.47-9.69-52.68-15.38-80.7-16.45l-29.19-50.49c-1.02-1.77-3.06-2.7-5.07-2.31
				l-68.71,13.36c-2.01,0.39-3.55,2.01-3.83,4.04l-8.14,57.75c-25.59,11.49-48.67,26.96-68.67,45.48l-56.38-15.08
				c-1.98-0.53-4.07,0.25-5.21,1.95l-39.14,58.03c-1.14,1.7-1.09,3.93,0.14,5.56l35.1,46.62c-9.69,25.47-15.38,52.68-16.45,80.7
				l-50.5,29.18c-1.77,1.02-2.7,3.06-2.31,5.06l13.36,68.71c0.39,2.01,2.01,3.55,4.04,3.83l57.75,8.14
				c11.49,25.58,26.96,48.67,45.48,68.66l-0.05,0.18l26.63-26.41l73.68,14.29C1553.74,668.58,1555.79,666.71,1555.55,664.41z"/>
			
				<linearGradient id="SVGID_36_" gradientUnits="userSpaceOnUse" x1="851.1626" y1="-343.2183" x2="924.3245" y2="510.3354" gradientTransform="matrix(0.981 0.1938 -0.1938 0.981 776.3535 324.4033)">
				<stop  offset="0" style="stop-color:#53D8FF"/>
				<stop  offset="1" style="stop-color:#3840F7"/>
			</linearGradient>
			<path class="st38" d="M1593.72,535.72c-1.3-2.02-2.53-4.1-3.58-6.34c-12.65-26.92-1.04-59.12,25.88-71.77
				c2.44-1.15,4.94-2.1,7.47-2.87c11.01-3.32,22.76-3.03,33.77,0.94c13.56,4.89,24.4,14.76,30.53,27.81
				c5.32,11.32,6.3,23.56,3.71,34.9l16.66,0.59c2.54-13.92,0.96-28.72-5.51-42.48c-7.99-17.01-22.13-29.89-39.81-36.27
				c-17.68-6.38-36.78-5.49-53.79,2.51c-35.11,16.5-50.26,58.49-33.76,93.61c1.53,3.25,3.32,6.28,5.26,9.18L1593.72,535.72z"/>
			
				<linearGradient id="SVGID_37_" gradientUnits="userSpaceOnUse" x1="870.2044" y1="456.9893" x2="794.334" y2="-561.8535" gradientTransform="matrix(0.981 0.1938 -0.1938 0.981 776.3535 324.4033)">
				<stop  offset="0" style="stop-color:#53D8FF"/>
				<stop  offset="1" style="stop-color:#3840F7"/>
			</linearGradient>
			<path class="st39" d="M1736.43,361.71c-38.31-25.84-84.39-35.22-129.76-26.4c-93.62,18.2-155.03,109.2-136.82,202.85
				c1.12,5.77,2.53,11.47,4.22,17.06c7.32,24.24,19.86,46.62,36.8,65.47c1.52,1.69,4.11,1.82,5.8,0.31c1.22-1.1,1.63-2.76,1.19-4.24
				c-0.17-0.56-0.46-1.09-0.88-1.56c-16.14-17.96-28.08-39.27-35.05-62.36c-1.61-5.33-2.95-10.75-4.02-16.25
				c-17.34-89.2,41.09-175.87,130.33-193.22c43.21-8.4,87.11,0.53,123.6,25.15c1,0.68,1.97,1.39,2.95,2.08l5.61-6.08
				C1739.09,363.57,1737.78,362.62,1736.43,361.71z"/>
		</g>
	</g>
	<g>
		<g>
			
				<ellipse transform="matrix(0.7071 -0.7071 0.7071 0.7071 -141.4492 374.0841)" class="st10" cx="380.83" cy="357.79" rx="201.79" ry="201.79"/>
			<linearGradient id="SVGID_38_" gradientUnits="userSpaceOnUse" x1="506.8925" y1="-132.6755" x2="323.9268" y2="579.2014">
				<stop  offset="0" style="stop-color:#FDF53F"/>
				<stop  offset="1" style="stop-color:#D93C65"/>
			</linearGradient>
			<circle class="st40" cx="380.83" cy="357.79" r="195.08"/>
			<path class="st10" d="M541.7,278.81c0.31,0,0.63-0.07,0.93-0.22c1.02-0.51,1.42-1.75,0.91-2.77
				c-31.19-61.79-93.53-100.18-162.7-100.18c-11.03,0-22.09,0.99-32.86,2.96c-1.12,0.2-1.86,1.28-1.66,2.4
				c0.2,1.12,1.27,1.87,2.4,1.66c10.53-1.92,21.33-2.89,32.12-2.89c67.6,0,128.54,37.52,159.02,97.91
				C540.22,278.39,540.95,278.81,541.7,278.81z"/>
			
				<ellipse transform="matrix(0.7071 -0.7071 0.7071 0.7071 -145.6996 372.3235)" class="st10" cx="376.58" cy="362.04" rx="165.11" ry="165.11"/>
		</g>
		<g>
			<linearGradient id="SVGID_39_" gradientUnits="userSpaceOnUse" x1="1027.462" y1="-471.7265" x2="742.0023" y2="-126.6184">
				<stop  offset="0" style="stop-color:#FDF53F"/>
				<stop  offset="1" style="stop-color:#D93C65"/>
			</linearGradient>
			<path class="st41" d="M386.8,394.14l-18.69-0.45c-5.21-0.12-9.52-4.58-9.79-9.82l-6.84-131.64c-0.14-2.71,0.83-4.95,2.7-6.79
				c1.86-1.83,4.44-2.42,7.13-2.24l32.18,2.24c2.64,0.18,5.15,1.06,6.96,3.12c1.81,2.06,2.75,4.53,2.62,7.18L396.43,385
				C396.16,390.16,391.94,394.27,386.8,394.14z"/>
			<linearGradient id="SVGID_40_" gradientUnits="userSpaceOnUse" x1="1092.2136" y1="-418.1629" x2="806.7542" y2="-73.0552">
				<stop  offset="0" style="stop-color:#FDF53F"/>
				<stop  offset="1" style="stop-color:#D93C65"/>
			</linearGradient>
			<path class="st42" d="M357.97,426.3c4.67-4.46,11.23-6.61,19.67-6.48c8.7,0.14,15.3,2.43,19.81,6.87
				c4.5,4.43,6.75,10.9,6.75,19.42c0,8.22-2.3,14.57-6.9,19.08c-4.62,4.52-11.16,6.79-19.66,6.79c-8.34,0-14.88-2.34-19.6-7.02
				c-4.73-4.7-7.1-11.13-7.1-19.27C350.95,437.23,353.29,430.77,357.97,426.3z"/>
		</g>
	</g>
	<g>
		<g>
			<linearGradient id="SVGID_41_" gradientUnits="userSpaceOnUse" x1="984.7907" y1="282.6157" x2="1161.8499" y2="1284.5592">
				<stop  offset="3.597000e-03" style="stop-color:#26264F"/>
				<stop  offset="1" style="stop-color:#444B8C"/>
			</linearGradient>
			<path class="st43" d="M1117.46,269.88l-520.91,875.25c-11.44,19.22,3.51,42.73,27.29,42.92l1032.61,8.5
				c23.87,0.2,39.26-23.22,28.02-42.63l-511.69-883.75C1161.01,249.86,1129.48,249.69,1117.46,269.88z"/>
			<linearGradient id="SVGID_42_" gradientUnits="userSpaceOnUse" x1="1451.3785" y1="414.6137" x2="535.1616" y2="2536.6096">
				<stop  offset="0" style="stop-color:#FDF53F"/>
				<stop  offset="1" style="stop-color:#D93C65"/>
			</linearGradient>
			<path class="st44" d="M1120.09,322.17L647,1117.07c-10.39,17.45,3.19,38.8,24.78,38.98l937.81,7.72
				c21.68,0.18,35.66-21.09,25.45-38.72l-464.72-802.62C1159.64,303.98,1131.01,303.83,1120.09,322.17z"/>
		</g>
		<g>
			<g>
				<linearGradient id="SVGID_43_" gradientUnits="userSpaceOnUse" x1="881.7339" y1="1056.9756" x2="1349.6366" y2="-80.7657">
					<stop  offset="0" style="stop-color:#2B3582"/>
					<stop  offset="1" style="stop-color:#150E42"/>
				</linearGradient>
				<path class="st45" d="M1038.77,866.86l-23.11,0.3v41.27l-39.88,0.67v-41.42l-83.31,1.08v-29.61l85.57-129.9l37.63,0.04v125.18
					l23.11-0.23V866.86z M975.78,834.87v-33.9c0-5.65,0.22-13.85,0.66-24.61c0.44-10.75,0.8-17,1.06-18.73l-1.06,0
					c-3.27,7.49-7.21,14.79-11.81,21.93l-35.7,55.78L975.78,834.87z"/>
				<linearGradient id="SVGID_44_" gradientUnits="userSpaceOnUse" x1="1002.3399" y1="1106.5763" x2="1470.2428" y2="-31.1656">
					<stop  offset="0" style="stop-color:#2B3582"/>
					<stop  offset="1" style="stop-color:#150E42"/>
				</linearGradient>
				<path class="st46" d="M1191.21,807.5c0,34.24-5.34,59.65-16.02,76.26c-10.71,16.64-27.24,25.17-49.65,25.55
					c-21.81,0.37-38.31-7.92-49.44-24.9c-11.16-17.01-16.75-42.31-16.75-75.87c0-35.01,5.44-60.82,16.3-77.42
					c10.84-16.57,27.49-24.82,49.9-24.79c21.72,0.03,38.08,8.65,49.14,25.85C1185.7,749.32,1191.21,774.42,1191.21,807.5z
					 M1099.28,808.21c0,24.25,2.01,41.6,6.02,52.04c4.01,10.44,10.76,15.59,20.23,15.46c9.28-0.13,15.98-5.52,20.09-16.16
					c4.11-10.64,6.17-27.88,6.17-51.75c0-24.13-2.08-41.46-6.23-51.99c-4.16-10.54-10.83-15.8-20.03-15.79
					c-9.39,0.02-16.11,5.32-20.17,15.91C1101.31,766.54,1099.28,783.97,1099.28,808.21z"/>
				<linearGradient id="SVGID_45_" gradientUnits="userSpaceOnUse" x1="1149.8495" y1="1167.24" x2="1617.7527" y2="29.4975">
					<stop  offset="0" style="stop-color:#2B3582"/>
					<stop  offset="1" style="stop-color:#150E42"/>
				</linearGradient>
				<path class="st47" d="M1349.71,862.82l-21.84,0.28v40.12l-37.69,0.63v-40.26l-78.71,1.02v-28.77l80.84-126.25l35.56,0.04v121.69
					l21.84-0.22V862.82z M1290.18,831.7v-32.96c0-5.49,0.21-13.46,0.63-23.92c0.42-10.45,0.75-16.52,1-18.21l-1,0
					c-3.09,7.28-6.81,14.38-11.16,21.32l-33.73,54.21L1290.18,831.7z"/>
			</g>
			<g>
				<linearGradient id="SVGID_46_" gradientUnits="userSpaceOnUse" x1="902.9459" y1="1065.6992" x2="1370.849" y2="-72.0431">
					<stop  offset="0" style="stop-color:#2B3582"/>
					<stop  offset="1" style="stop-color:#150E42"/>
				</linearGradient>
				<path class="st48" d="M948.79,1083.02l-61.53,1.97V975.07l61.53-1.38v18.99l-38.8,0.93v24.09l36.11-0.95v19l-36.11,1.01v28.29
					l38.8-1.18V1083.02z"/>
				<linearGradient id="SVGID_47_" gradientUnits="userSpaceOnUse" x1="986.2569" y1="1099.9613" x2="1454.161" y2="-37.7833">
					<stop  offset="0" style="stop-color:#2B3582"/>
					<stop  offset="1" style="stop-color:#150E42"/>
				</linearGradient>
				<path class="st49" d="M997,1039.7v41.77l-22.38,0.72V973.11l30.74-0.69c14.28-0.32,24.82,2.13,31.64,7.34
					c6.82,5.21,10.22,13.27,10.22,24.19c0,6.37-1.69,12.09-5.07,17.15c-3.39,5.06-8.18,9.09-14.39,12.08
					c15.75,23.93,25.98,39.35,30.73,46.31l-24.57,0.79l-25.04-40.93L997,1039.7z M997,1020.94l7.2-0.19
					c7.05-0.19,12.25-1.54,15.6-4.06c3.35-2.52,5.02-6.37,5.02-11.57c0-5.15-1.71-8.77-5.13-10.87c-3.42-2.1-8.73-3.06-15.92-2.89
					l-6.77,0.16V1020.94z"/>
				<linearGradient id="SVGID_48_" gradientUnits="userSpaceOnUse" x1="1070.7191" y1="1134.6969" x2="1538.6235" y2="-3.0483">
					<stop  offset="0" style="stop-color:#2B3582"/>
					<stop  offset="1" style="stop-color:#150E42"/>
				</linearGradient>
				<path class="st50" d="M1097.21,1036.86v41.4l-21.99,0.7v-108.1l30.19-0.68c14.02-0.31,24.38,2.12,31.08,7.28
					c6.7,5.16,10.04,13.15,10.04,23.98c0,6.32-1.66,11.98-4.98,16.99c-3.33,5.02-8.03,9-14.13,11.97
					c15.47,23.72,25.52,39.01,30.19,45.91l-24.13,0.77l-24.59-40.57L1097.21,1036.86z M1097.21,1018.27l7.07-0.19
					c6.92-0.18,12.03-1.53,15.32-4.02c3.29-2.49,4.93-6.31,4.93-11.47c0-5.1-1.68-8.69-5.04-10.77c-3.36-2.08-8.57-3.04-15.64-2.87
					l-6.65,0.16V1018.27z"/>
				<linearGradient id="SVGID_49_" gradientUnits="userSpaceOnUse" x1="1156.3752" y1="1169.9235" x2="1624.2697" y2="32.2024">
					<stop  offset="0" style="stop-color:#2B3582"/>
					<stop  offset="1" style="stop-color:#150E42"/>
				</linearGradient>
				<path class="st51" d="M1265.91,1019.58c0,17.59-4.12,31.23-12.37,40.94c-8.26,9.72-20.13,14.84-35.62,15.33
					c-15.53,0.5-27.49-3.87-35.85-13.13c-8.37-9.27-12.56-22.83-12.56-40.67s4.2-31.57,12.59-41.17
					c8.38-9.59,20.37-14.55,35.95-14.9c15.54-0.35,27.39,4.1,35.58,13.32C1261.82,988.53,1265.91,1001.95,1265.91,1019.58z
					 M1192.16,1021.59c0,11.95,2.16,20.89,6.47,26.81c4.31,5.91,10.74,8.74,19.29,8.48c17.1-0.52,25.63-12.75,25.63-36.68
					c0-23.98-8.48-35.77-25.49-35.37c-8.55,0.2-15,3.39-19.35,9.57C1194.34,1000.57,1192.16,1009.64,1192.16,1021.59z"/>
				<linearGradient id="SVGID_50_" gradientUnits="userSpaceOnUse" x1="1251.1917" y1="1208.9175" x2="1719.0963" y2="71.1715">
					<stop  offset="0" style="stop-color:#2B3582"/>
					<stop  offset="1" style="stop-color:#150E42"/>
				</linearGradient>
				<path class="st52" d="M1311.31,1030.79v40.6l-21.15,0.68V966.06l29.04-0.65c13.49-0.3,23.45,2.09,29.9,7.16
					c6.44,5.07,9.66,12.9,9.66,23.52c0,6.2-1.6,11.75-4.79,16.67c-3.2,4.92-7.73,8.83-13.6,11.73
					c14.88,23.28,24.55,38.28,29.04,45.05l-23.22,0.74l-23.66-39.8L1311.31,1030.79z M1311.31,1012.56l6.8-0.18
					c6.66-0.18,11.57-1.49,14.74-3.93c3.16-2.44,4.75-6.19,4.75-11.25c0-5.01-1.62-8.53-4.85-10.57c-3.23-2.04-8.24-2.98-15.04-2.82
					l-6.39,0.15V1012.56z"/>
			</g>
		</g>
	</g>
	<g>
		
			<linearGradient id="SVGID_51_" gradientUnits="userSpaceOnUse" x1="3059.2483" y1="1958.6074" x2="2558.658" y2="2503.1099" gradientTransform="matrix(1 0 0 1 -2400.0403 0)">
			<stop  offset="0" style="stop-color:#2B3582"/>
			<stop  offset="1" style="stop-color:#150E42"/>
		</linearGradient>
		<path class="st53" d="M500.97,1999.17c0,0-5.18,29.35-7.73,58.4c-0.99,11.35,7.76,21.21,19.15,21.69
			c38.69,1.61,121.45,4.74,151.14,3.42c4.46-0.2,7.38-4.77,5.73-8.92l0,0c-1.38-3.48-4.05-6.29-7.46-7.86l-136.7-62.83
			L500.97,1999.17z"/>
		
			<linearGradient id="SVGID_52_" gradientUnits="userSpaceOnUse" x1="2896.7642" y1="1999.0485" x2="2941.229" y2="1999.0485" gradientTransform="matrix(1 0 0 1 -2400.0403 0)">
			<stop  offset="0" style="stop-color:#F9B776"/>
			<stop  offset="1" style="stop-color:#F47960"/>
		</linearGradient>
		<path class="st54" d="M496.72,1981.92l4.17,35.11c0,0,23.95,11.15,40.3-1.41l-9.92-39.12L496.72,1981.92z"/>
		
			<linearGradient id="SVGID_53_" gradientUnits="userSpaceOnUse" x1="263.6096" y1="4707.7354" x2="742.9106" y2="4145.9746" gradientTransform="matrix(1 0 0 1 -2400.0403 0)">
			<stop  offset="0" style="stop-color:#53D8FF"/>
			<stop  offset="1" style="stop-color:#3840F7"/>
		</linearGradient>
		<path class="st55" d="M499.85,1321.94c-1.8,9.17-9.66,457.48,38.26,658.38c0.78,3.28-0.88,6.66-4,7.93
			c-7.35,3-21.76,7.35-39.03,7.93c-5.35,0.18-10.14-3.3-11.65-8.43c-13.7-46.61-79.34-280.16-87.9-503.25
			c-9.57-249.29,0-8.49,0-8.49l5.61-154.09L499.85,1321.94z"/>
		
			<linearGradient id="SVGID_54_" gradientUnits="userSpaceOnUse" x1="2946.9492" y1="1855.3646" x2="2446.3586" y2="2399.8674" gradientTransform="matrix(1 0 0 1 -2400.0403 0)">
			<stop  offset="0" style="stop-color:#2B3582"/>
			<stop  offset="1" style="stop-color:#150E42"/>
		</linearGradient>
		<path class="st56" d="M343.72,2014.48c0,0-8.25,14.82-16.24,54.19c-1.44,7.11,3.52,13.92,10.75,14.63
			c12.77,1.26,32.44,2.87,48.2,2.76c7.26-0.05,12.93-6.37,12.05-13.58c-1.74-14.37-7.18-37.95-23.98-56.32L343.72,2014.48z"/>
		
			<linearGradient id="SVGID_55_" gradientUnits="userSpaceOnUse" x1="2736.5132" y1="1996.7682" x2="2774.9045" y2="1996.7682" gradientTransform="matrix(1 0 0 1 -2400.0403 0)">
			<stop  offset="0" style="stop-color:#F9B776"/>
			<stop  offset="1" style="stop-color:#F47960"/>
		</linearGradient>
		<path class="st57" d="M336.47,1969.33l9.73,53.09c0,0,9.62,7.16,28.66,1.97l-4.65-57.12L336.47,1969.33z"/>
		
			<linearGradient id="SVGID_56_" gradientUnits="userSpaceOnUse" x1="196.4126" y1="4650.4043" x2="675.7122" y2="4088.6448" gradientTransform="matrix(1 0 0 1 -2400.0403 0)">
			<stop  offset="0" style="stop-color:#53D8FF"/>
			<stop  offset="1" style="stop-color:#3840F7"/>
		</linearGradient>
		<path class="st58" d="M310.18,1335.7c-39.19,236.53,8.5,584.61,24.59,652.74c0.98,4.17,4.35,7.37,8.58,8.07
			c7.18,1.19,19,2.16,30.65-1.22c4.02-1.17,6.84-4.79,7-8.97c2.16-55.08-1.73-393.21,34.79-526.84c1.85-6.77,5.99-12.68,11.71-16.75
			l70.88-50.39l5.43-81.45L310.18,1335.7z"/>
		<g>
			<g>
				<g>
					<g>
						<g>
							<linearGradient id="SVGID_57_" gradientUnits="userSpaceOnUse" x1="-158.757" y1="1578.9766" x2="593.6919" y2="1017.217">
								<stop  offset="0" style="stop-color:#A737D5"/>
								<stop  offset="1" style="stop-color:#EF497A"/>
							</linearGradient>
							<path class="st59" d="M659.12,998.53c-5.96,42.37-12.25,52.11-17.13,52.36c-15.55,0.8-12.42-94.73-69.31-143.06
								c-35.93-30.52-85.01-33.04-123.52-29.48c17.97,64.44,35.93,128.87,53.9,193.31c7.85,19.25,42.05,97.11,119.45,120.75
								c15.76,4.81,39.21,11.97,61.02,2.6c43.05-18.5,63.24-94.34,43.99-189.3C718.48,1002.35,705.95,998.77,659.12,998.53z"/>
							
								<linearGradient id="SVGID_58_" gradientUnits="userSpaceOnUse" x1="-10424.5957" y1="2604.2627" x2="-10923.2764" y2="3242.2798" gradientTransform="matrix(0.3133 -0.9497 0.9497 0.3133 1288.3107 -10047.2773)">
								<stop  offset="0" style="stop-color:#F9B776"/>
								<stop  offset="1" style="stop-color:#F47960"/>
							</linearGradient>
							<path class="st60" d="M645.41,833.29l7.12,40.27c11.44,49.25,12.53,90.31,6.59,124.97c9.83,0.41,20.15,1.1,30.91,2.16
								c13.26,1.31,25.78,3.04,37.5,5.02c-6.19-50.09-39.52-133.27-39.52-133.27C667.91,843.42,665.51,862.3,645.41,833.29z"/>
						</g>
						
							<linearGradient id="SVGID_59_" gradientUnits="userSpaceOnUse" x1="-10356.708" y1="2657.323" x2="-10855.3877" y2="3295.3396" gradientTransform="matrix(0.3133 -0.9497 0.9497 0.3133 1288.3107 -10047.2773)">
							<stop  offset="0" style="stop-color:#F9B776"/>
							<stop  offset="1" style="stop-color:#F47960"/>
						</linearGradient>
						<path class="st61" d="M726.83,748.43c-8.07-0.21-15.8,3.25-21,9.42l-50.81,60.2c0,0-9.25-1.89-10.11-19.6
							c-0.87-17.71-19.68-19.84-19.68-19.84s2.71,24.7,7.88,61.25c2.95,20.9,15.31,36.16,25.35,45.4l29.39-10.12
							c26.96-38.54,43.7-81.01,53-126.35L726.83,748.43z"/>
					</g>
					<linearGradient id="SVGID_60_" gradientUnits="userSpaceOnUse" x1="131.3693" y1="1465.0837" x2="682.8233" y2="717.7872">
						<stop  offset="0" style="stop-color:#A737D5"/>
						<stop  offset="1" style="stop-color:#EF497A"/>
					</linearGradient>
					<path class="st62" d="M248,912.21c3.39-0.89,26.53-24.8,30.01-25.46c57.03-10.87,199.39-49.21,294.68,21.08
						c0.24,2.03,0.39,3.65,0.48,4.99c0.92,1.25,2.19,3.36,3.93,6.73c9,17.44,19.8,34.39,32.16,50.22c-2.72,2.7-4.98,5.87-6.63,9.39
						c-22.89,49.05-109.69,244.91-94.43,364.68c0.79,6.19-3.42,11.88-9.6,12.74c-33.69,4.66-134.03,16.02-185.86-5.38
						c-3.02-1.25-4.95-4.2-4.9-7.47c0.34-24.03-0.68-128.33-38.91-254.05c-1.42-4.69-2.59-9.45-3.52-14.25
						c-0.47,0.97-0.91,1.92-1.37,2.89L248,912.21z"/>
					<linearGradient id="SVGID_61_" gradientUnits="userSpaceOnUse" x1="-49.8521" y1="1331.3557" x2="501.493" y2="584.2066">
						<stop  offset="0" style="stop-color:#A737D5"/>
						<stop  offset="1" style="stop-color:#EF497A"/>
					</linearGradient>
					<path class="st63" d="M335.04,875.88c-106.36,7.78-128.59,68.56-202.1,31.4l13.02,113.82c27.26,30.1,68.41,50.6,120.27,58.29
						L335.04,875.88z"/>
				</g>
				<g>
					
						<linearGradient id="SVGID_62_" gradientUnits="userSpaceOnUse" x1="-5712.5684" y1="1500.9987" x2="-5798.3389" y2="1871.6483" gradientTransform="matrix(0.9659 0.2591 -0.2591 0.9659 6381.5767 791.5941)">
						<stop  offset="0" style="stop-color:#F9B776"/>
						<stop  offset="1" style="stop-color:#F47960"/>
					</linearGradient>
					<path class="st64" d="M407.72,772.94c-18.22,36.33-25.83,73.33-28.11,107.78c3.92,1.46,56.23,37.75,91.24,2.62
						c-7.48-24.11-6.25-60.4-4.34-97.62L407.72,772.94z"/>
					<g>
						
							<linearGradient id="SVGID_63_" gradientUnits="userSpaceOnUse" x1="-2326.1926" y1="1434.7621" x2="-2639.603" y2="1587.0737" gradientTransform="matrix(-0.9451 0.3269 0.3269 0.9451 -2435.2507 118.1703)">
							<stop  offset="0" style="stop-color:#F9B776"/>
							<stop  offset="1" style="stop-color:#F47960"/>
						</linearGradient>
						<path class="st65" d="M502.61,677.43c1,1.62,27.14,124.9,27.14,124.9l-70.71,13.43L416.91,702.6
							C416.91,702.6,485.83,650.29,502.61,677.43z"/>
						
							<linearGradient id="SVGID_64_" gradientUnits="userSpaceOnUse" x1="-5854.2422" y1="-4707.7578" x2="-5681.5356" y2="-4707.7578" gradientTransform="matrix(0.8506 -0.5257 0.5257 0.8506 7863.6255 1717.0183)">
							<stop  offset="0" style="stop-color:#2B3582"/>
							<stop  offset="1" style="stop-color:#150E42"/>
						</linearGradient>
						<path class="st66" d="M443.9,712.66c-1.89,2.59-2.48,5.89-1.6,8.97l17.26,60.42c0.26,0.92,0.63,1.78,1.14,2.59
							c2.79,4.46,12.81,17.93,26.31,6.87c11.51-9.43,22.22-17.94,31.82-20.05c5.61-1.24,11.11,2.43,12.28,8.05
							c2.41,11.58,6.8,35.03,7.77,56.42c0.24,5.36-3.73,9.98-9.05,10.64c-14.05,1.74-41.6,4.3-64.65,1.41
							c-3.79-0.47-6.99-2.99-8.36-6.55c-6.05-15.67-23.19-59.52-29.93-71.15c-6.26-10.81-22.9-11.83-30.56-11.69
							c-2.91,0.05-5.68-1.09-7.7-3.19c-6.05-6.28-15.73-20.47,0.69-35.7c4.08-3.79,4.25-10.24,0.55-14.41
							c-6.63-7.46-12.7-19.74-0.06-33.61c12.8-14.04,28.24-11.47,38.16-7.46c4.39,1.77,9.63,0.63,12.5-3.13
							c1.28-1.67,3.24-2.86,6.24-2.68c5.66,0.35,10.51-3.62,10.9-9.28c0.67-9.71,5.24-21.33,22.14-25.47
							c30.99-7.61,48.16,22.94,48.7,44.98c0.54,22.04-33.54,28.38-53.18,25.69C460.85,692.35,449.12,705.52,443.9,712.66z"/>
						
							<linearGradient id="SVGID_65_" gradientUnits="userSpaceOnUse" x1="-2309.2739" y1="1469.5688" x2="-2622.686" y2="1621.8813" gradientTransform="matrix(-0.9451 0.3269 0.3269 0.9451 -2435.2507 118.1703)">
							<stop  offset="0" style="stop-color:#F9B776"/>
							<stop  offset="1" style="stop-color:#F47960"/>
						</linearGradient>
						<path class="st67" d="M437.48,793.19c0,0-6.58-39.03-22.3-41.86c-15.72-2.83-31.93,9.24-17.49,31.57
							C415.65,810.67,437.48,793.19,437.48,793.19z"/>
					</g>
				</g>
				<g>
					
						<linearGradient id="SVGID_66_" gradientUnits="userSpaceOnUse" x1="-2550.5657" y1="1693.4218" x2="-2273.4014" y2="1885.6064" gradientTransform="matrix(-0.9999 -0.0105 -0.0105 0.9999 -2101.5962 -1043.4441)">
						<stop  offset="0" style="stop-color:#F9B776"/>
						<stop  offset="1" style="stop-color:#F47960"/>
					</linearGradient>
					<path class="st68" d="M411.56,652.78c2.74-0.11,5.72,0.15,9,0.84c7.47,1.58,17.43,5.43,14.84,12.61
						c-3.89,10.8-24.1,0.71-34.86,18.11c-9.48,15.34-1.72,31.99-4.62,48.52c-1.41,8.04-6.58,19.98-13.76,24.68
						c-3.21,2.1-28.58,6.12-29.97,1.62c0,0-7.05-22.88-7.05-22.88c-6.34-20.58,18.03-54.88,30.59-68.74
						C385.44,656.83,398.6,653.31,411.56,652.78z"/>
					<g>
						
							<linearGradient id="SVGID_67_" gradientUnits="userSpaceOnUse" x1="-2544.925" y1="1687.8562" x2="-2256.5962" y2="1887.7825" gradientTransform="matrix(-0.9999 -0.0105 -0.0105 0.9999 -2101.5962 -1043.4441)">
							<stop  offset="0" style="stop-color:#F9B776"/>
							<stop  offset="1" style="stop-color:#F47960"/>
						</linearGradient>
						<path class="st69" d="M387.51,735.39l-24.27,20.2c-46.53,19.79-80.34,43.11-104.84,68.34c-8.87-16.69-23.23-35.98-46.13-51.03
							c46.9-23.1,81.82-32.7,81.82-32.7C388.76,702.13,387.51,735.39,387.51,735.39z"/>
						<linearGradient id="SVGID_68_" gradientUnits="userSpaceOnUse" x1="-105.3561" y1="1290.3967" x2="446.0972" y2="543.101">
							<stop  offset="0" style="stop-color:#A737D5"/>
							<stop  offset="1" style="stop-color:#EF497A"/>
						</linearGradient>
						<path class="st70" d="M258.41,823.93c-76.5,78.78-54.14,38.75-54.75,105.9c-0.23,25.04-21.95,120.63-21.95,120.63
							c-233.95-101.07-38.71-239.02,30.58-277.55C235.18,787.95,249.54,807.24,258.41,823.93z"/>
					</g>
				</g>
			</g>
		</g>
	</g>
</g>
</svg>
